<svg xmlns="http://www.w3.org/2000/svg" viewBox="0 0 960 640">
  <defs>
    <linearGradient id="wall" x1="0" x2="1" y1="0" y2="1">
      <stop stop-color="#251b24"/>
      <stop offset="1" stop-color="#3a232d"/>
    </linearGradient>
    <linearGradient id="floor" x1="0" x2="1">
      <stop stop-color="#181314"/>
      <stop offset="1" stop-color="#2c2020"/>
    </linearGradient>
  </defs>
  <rect width="960" height="640" fill="#151111"/>
  <rect width="960" height="410" fill="url(#wall)"/>
  <path d="M0 410h960v230H0z" fill="url(#floor)"/>
  <path d="M0 410h960" stroke="#ffb0a6" stroke-opacity=".25" stroke-width="4"/>
  <rect x="64" y="74" width="276" height="182" rx="24" fill="#f5f1ec" opacity=".12" stroke="#ffd7d7" stroke-opacity=".25" stroke-width="8"/>
  <path d="M102 110h196M102 150h196M102 190h142" stroke="#fff" stroke-opacity=".12" stroke-width="10" stroke-linecap="round"/>
  <rect x="730" y="235" width="76" height="154" rx="22" fill="#0d0d0d" stroke="#fff" stroke-opacity=".12"/>
  <circle cx="768" cy="280" r="23" fill="none" stroke="#f28c8c" stroke-width="10" opacity=".65"/>
  <circle cx="768" cy="345" r="27" fill="none" stroke="#f28c8c" stroke-width="12" opacity=".5"/>
  <ellipse cx="480" cy="88" rx="128" ry="28" fill="#fff1d8" opacity=".55"/>
  <path d="M360 112h240l-70 228H430z" fill="#f28c8c" opacity=".08"/>
  <path d="M0 496c135-46 279-46 432 0s330 46 528 0v144H0z" fill="#fff" opacity=".035"/>
</svg>
