<svg xmlns="http://www.w3.org/2000/svg" viewBox="0 0 360 520">
  <rect width="360" height="520" fill="none"/>
  <circle cx="180" cy="110" r="54" fill="#edc2a4"/>
  <path d="M126 98c8-47 102-58 112 0-40-8-75-8-112 0z" fill="#243448"/>
  <path d="M104 194h152l22 152H82z" fill="#b9d7ff"/>
  <path d="M105 220l-62 12M254 218l62-64" stroke="#edc2a4" stroke-width="26" stroke-linecap="round"/>
  <rect x="232" y="94" width="62" height="82" rx="9" fill="#fff4ef" stroke="#263348" stroke-width="6"/>
  <path d="M246 126h34M246 146h26" stroke="#a7f0c1" stroke-width="5" stroke-linecap="round"/>
  <path d="M128 346h42v104h-50zM190 346h42l8 104h-50z" fill="#263348"/>
  <path d="M108 456h70M184 456h76" stroke="#ff7373" stroke-width="22" stroke-linecap="round"/>
  <text x="180" y="503" text-anchor="middle" font-family="Verdana" font-size="34" fill="#b9d7ff" font-weight="700">BEATZ</text>
</svg>
